<svg width="72" height="44" viewBox="0 0 72 44" fill="none" xmlns="http://www.w3.org/2000/svg">
<path d="M34.2533 24.0051C33.8163 24.2869 33.6025 23.711 34.0394 23.4291L42.1783 17.6486C44.3647 16.2383 45.2092 18.9702 47.0796 17.6995L67.852 3.58679C68.7259 3.02308 69.4873 3.61513 69.8044 4.46899C70.1251 5.33287 70.0089 6.4786 69.135 7.0423L47.935 20.0032C46.0286 21.1687 47.1325 23.7331 44.9583 25.1356L36.4986 30.0522C36.0617 30.3341 35.8478 29.7581 36.2848 29.4763L42.9882 23.9156C43.4252 23.6338 43.2113 23.0579 42.7784 23.3504L35.3874 27.0594C34.9504 27.3413 34.7366 26.7653 35.1735 26.4835L41.9167 21.0297C42.3536 20.7479 42.1454 20.1869 41.7084 20.4688L34.2533 24.0051Z" fill="#2AA44C"/>
<path d="M52.4551 19.8452C52.3641 22.939 51.7106 25.9926 50.5246 28.8559C49.2428 31.9505 47.364 34.7622 44.9956 37.1307C42.6271 39.4991 39.8154 41.3779 36.7208 42.6597C36.5005 42.751 36.0126 42.8362 35.2447 42.8882C34.5089 42.9379 33.6076 42.9528 32.6269 42.9495C31.6578 42.9464 30.6248 42.9257 29.6135 42.9054L29.5827 42.9048C28.565 42.8844 27.5686 42.8646 26.6976 42.8646C26.0241 42.8646 25.3025 42.8694 24.5646 42.8742C23.3909 42.8819 22.1757 42.8899 21.0469 42.8795C20.1321 42.8711 19.2907 42.8507 18.5953 42.809C17.9165 42.7683 17.4298 42.7098 17.1531 42.6405C14.0768 41.3591 11.2813 39.4873 8.92464 37.1307C6.55619 34.7622 4.67743 31.9505 3.39563 28.8559C2.20958 25.9926 1.55614 22.939 1.46513 19.8452L26.9601 19.8452L52.4551 19.8452Z" fill="#2AA44C" stroke="#2AA44C" stroke-width="1.5"/>
<path d="M8.02196 20.7465L9.49415 21.9961L11.949 21.5496C12.068 21.2819 12.3774 20.6929 12.663 20.4786C12.9486 20.2643 14.1208 20.3893 14.6711 20.4786C14.9389 19.8985 15.5012 18.5955 15.6083 18.0242C15.7154 17.4529 14.7009 16.5664 14.1803 16.1946C13.1836 16.3731 11.0833 16.6767 10.6549 16.4624C10.2264 16.2481 8.48297 16.5517 7.66478 16.7303C7.5904 17.2955 7.55771 18.4884 8.02196 18.7383C8.48621 18.9882 8.2154 20.1812 8.02196 20.7465Z" stroke="#2AA44C" stroke-linecap="round"/>
<path d="M20.7753 17.2077L18.9278 17.7698L17.9752 20.0759C18.136 20.3208 18.4639 20.8997 18.4896 21.2558C18.5154 21.6119 17.7761 22.5301 17.4032 22.9447C17.7462 23.4837 18.5378 24.6615 18.9604 25.0607C19.3829 25.4599 20.6773 25.0863 21.2717 24.8496C21.6607 23.9148 22.5418 21.9841 22.9537 21.7398C23.3657 21.4954 24.0537 19.8649 24.3462 19.0802C23.911 18.7118 22.9255 18.0389 22.4641 18.2942C22.0028 18.5494 21.146 17.6762 20.7753 17.2077Z" stroke="#2AA44C" stroke-linecap="round"/>
<path d="M18.9556 8.69117L18.036 7.66672L16.5113 8.69117C16.6721 8.93609 15.8765 9.8963 15.9022 10.2524C15.9279 10.6086 16.8842 12.427 16.5113 12.8416C16.8543 13.3806 17.6459 14.5585 18.0685 14.9576C18.491 15.3568 19.7447 13.7027 20.3391 13.466C20.7281 12.5313 21.6499 11.8811 22.0618 11.6367C22.4738 11.3923 21.7693 10.681 22.0618 9.8963C21.6267 9.52794 22.0336 7.93585 21.5722 8.19109C21.1109 8.44633 19.3264 9.15967 18.9556 8.69117Z" stroke="#2AA44C" stroke-linecap="round"/>
<path d="M33.1112 12.0746L32.4994 11.4178L31.5433 12.0225C31.6517 12.1782 31.1618 12.7585 31.1859 12.9806C31.21 13.2027 31.8621 14.3542 31.6318 14.6041C31.8633 14.9467 32.3962 15.6962 32.6758 15.9535C32.9553 16.2108 33.7242 15.2087 34.1004 15.0741C34.33 14.501 34.9074 14.1162 35.1665 13.973C35.4255 13.8298 34.9584 13.3723 35.1293 12.8904C34.8424 12.652 35.0694 11.6704 34.7789 11.8193C34.4884 11.9682 33.359 12.3739 33.1112 12.0746Z" fill="#2AA44C" stroke="#2AA44C" stroke-linecap="round"/>
<path d="M9.72041 9.29319L8.5267 8.98933L7.87218 10.3971C8.11287 10.4964 7.97837 11.5298 8.17103 11.7682C8.3637 12.0067 9.97129 12.8514 9.89101 13.3109C10.4126 13.5344 11.584 14.0037 12.0977 14.0931C12.6113 14.1825 12.7547 12.4551 13.089 12.0205C12.9285 11.1886 13.3092 10.3158 13.5018 9.95824C13.6945 9.60062 12.8158 9.41942 12.6553 8.73643C12.1471 8.67434 11.6803 7.37288 11.4556 7.76041C11.2309 8.14795 10.2286 9.45466 9.72041 9.29319Z" fill="#2AA44C" stroke="#2AA44C" stroke-linecap="round"/>
<path d="M26.2761 17.7993L25.0824 17.4954L24.4278 18.9032C24.6685 19.0025 24.534 20.0359 24.7267 20.2744C24.9194 20.5128 26.527 21.3575 26.4467 21.817C26.9682 22.0405 28.1397 22.5098 28.6534 22.5992C29.167 22.6886 29.3104 20.9612 29.6447 20.5266C29.4842 19.6947 29.8649 18.822 30.0575 18.4643C30.2502 18.1067 29.3715 17.9255 29.2109 17.2425C28.7027 17.1804 28.236 15.879 28.0113 16.2665C27.7866 16.6541 26.7843 17.9608 26.2761 17.7993Z" fill="#2AA44C" stroke="#2AA44C" stroke-linecap="round"/>
<path d="M32.7971 21.6468L32.4932 22.8405L33.901 23.495C34.0003 23.2543 35.0337 23.3888 35.2722 23.1962C35.5106 23.0035 36.3553 21.3959 36.8148 21.4762C37.0383 20.9546 37.5076 19.7831 37.597 19.2695C37.6864 18.7558 35.959 18.6124 35.5244 18.2782C34.6925 18.4387 33.8198 18.058 33.4621 17.8653C33.1045 17.6727 32.9233 18.5514 32.2403 18.7119C32.1782 19.2201 30.8768 19.6869 31.2643 19.9116C31.6519 20.1362 32.9586 21.1386 32.7971 21.6468Z" fill="#2AA44C" stroke="#2AA44C" stroke-linecap="round"/>
<path d="M42.5256 20.0035L42.2218 21.1972L43.6295 21.8517C43.7289 21.611 44.7623 21.7455 45.0007 21.5529C45.2391 21.3602 46.0839 19.7526 46.5433 19.8329C46.7668 19.3113 47.2362 18.1398 47.3256 17.6262C47.415 17.1125 45.6876 16.9691 45.253 16.6349C44.421 16.7954 43.5483 16.4147 43.1907 16.222C42.833 16.0294 42.6518 16.9081 41.9689 17.0686C41.9068 17.5768 40.6053 18.0436 40.9928 18.2683C41.3804 18.4929 42.6871 19.4953 42.5256 20.0035Z" fill="#2AA44C" stroke="#2AA44C" stroke-linecap="round"/>
<path d="M24.5332 5.25522L25.9163 3.87194H27.7909L29.3082 3.11328L30.6916 3.87194V5.25522C30.7362 5.73125 30.8701 6.69224 31.0486 6.72794C31.2271 6.76364 31.8965 7.57583 32.2088 7.97746L30.2007 9.53935H27.3447L25.3811 8.60221L25.0688 7.1742V6.41557L24.5332 5.25522Z" stroke="#2AA44C" stroke-linecap="round"/>
<path d="M39.3254 4.89972L35.2285 6.85757V7.67719C35.8051 7.5406 37.0403 7.231 37.3681 7.08531C37.7778 6.90322 40.0535 5.76535 40.3273 5.62844L40.3275 5.62837C40.6006 5.49179 42.7861 3.85273 43.0592 3.4885C43.3324 3.12427 44.1064 2.25921 44.5617 1.71286C44.9259 1.27578 44.4099 0.862957 44.1064 0.711182H43.3779L42.0121 2.62336L39.3254 4.89972Z" fill="#2AA44C" stroke="#2AA44C" stroke-linecap="round" stroke-linejoin="round"/>
<path d="M4.57623 16.2466L2.24323 17.4346L2.24728 17.9238C2.57631 17.8396 3.28105 17.6489 3.46778 17.5604C3.70115 17.4498 4.99694 16.7598 5.15273 16.6768L5.15279 16.6768C5.30832 16.594 6.54986 15.6053 6.70427 15.3866C6.85867 15.1679 7.29698 14.6479 7.55462 14.3196C7.76074 14.057 7.46365 13.813 7.28934 13.7239L6.87279 13.7273L6.10121 14.8752L4.57623 16.2466Z" fill="#2AA44C"/>
<path d="M48.3751 19.0454L46.0421 20.2334L46.0461 20.7227C46.3751 20.6384 47.0799 20.4478 47.2666 20.3593C47.5 20.2486 48.7958 19.5586 48.9516 19.4757L48.9516 19.4756C49.1071 19.3928 50.3487 18.4041 50.5031 18.1854C50.6575 17.9667 51.0958 17.4467 51.3535 17.1185C51.5596 16.8558 51.2625 16.6119 51.0882 16.5227L50.6716 16.5262L49.9 17.674L48.3751 19.0454Z" fill="#2AA44C"/>
</svg>
