<svg width="8" height="15" viewBox="0 0 8 15" fill="none" xmlns="http://www.w3.org/2000/svg">
<path d="M6.15096 14.0686C6.00157 14.0691 5.85396 14.0362 5.71898 13.9721C5.584 13.9081 5.46508 13.8147 5.37096 13.6986L0.540965 7.69864C0.393883 7.5197 0.313477 7.29526 0.313477 7.06363C0.313477 6.83201 0.393883 6.60757 0.540965 6.42863L5.54096 0.428635C5.7107 0.224418 5.95461 0.095994 6.21904 0.0716143C6.48347 0.0472346 6.74675 0.128897 6.95096 0.298635C7.15518 0.468374 7.28361 0.712285 7.30798 0.976711C7.33236 1.24114 7.2507 1.50442 7.08096 1.70863L2.61096 7.06863L6.93096 12.4286C7.05325 12.5754 7.13092 12.7542 7.1548 12.9437C7.17868 13.1333 7.14777 13.3257 7.06571 13.4982C6.98365 13.6707 6.85389 13.8161 6.69178 13.9172C6.52967 14.0183 6.342 14.0709 6.15096 14.0686Z" fill="#2AA44C"/>
</svg>
