<svg width="135" height="108" viewBox="0 0 135 108" fill="none" xmlns="http://www.w3.org/2000/svg">
<path d="M125.637 10.0417H115.81V2.47566C115.81 1.86388 115.567 1.27716 115.135 0.844567C114.702 0.411974 114.115 0.168945 113.504 0.168945C112.892 0.168945 112.305 0.411974 111.873 0.844567C111.44 1.27716 111.197 1.86388 111.197 2.47566V10.0417H85.3156V3.07541C85.3156 2.46363 85.0726 1.87691 84.64 1.44431C84.2074 1.01172 83.6207 0.768692 83.0089 0.768692C82.3972 0.768692 81.8104 1.01172 81.3778 1.44431C80.9452 1.87691 80.7022 2.46363 80.7022 3.07541V10.0417H54.7747V3.07541C54.7747 2.46363 54.5317 1.87691 54.0991 1.44431C53.6665 1.01172 53.0798 0.768692 52.468 0.768692C51.8562 0.768692 51.2695 1.01172 50.8369 1.44431C50.4043 1.87691 50.1613 2.46363 50.1613 3.07541V10.0417H24.28V3.07541C24.28 2.46363 24.0369 1.87691 23.6044 1.44431C23.1718 1.01172 22.585 0.768692 21.9733 0.768692C21.3615 0.768692 20.7748 1.01172 20.3422 1.44431C19.9096 1.87691 19.6665 2.46363 19.6665 3.07541V10.0417H9.83994C7.47242 10.1002 5.21802 11.0668 3.54342 12.7414C1.86882 14.416 0.902234 16.6704 0.84375 19.0379V97.9275C0.842998 100.335 1.78338 102.648 3.46418 104.372C5.14497 106.096 7.43302 107.094 9.83994 107.154H125.637C128.044 107.094 130.332 106.096 132.013 104.372C133.694 102.648 134.634 100.335 134.633 97.9275V19.0379C134.575 16.6704 133.608 14.416 131.934 12.7414C130.259 11.0668 128.005 10.1002 125.637 10.0417ZM9.83994 14.6551H19.6665V21.6214C19.6665 22.2332 19.9096 22.8199 20.3422 23.2525C20.7748 23.6851 21.3615 23.9281 21.9733 23.9281C22.585 23.9281 23.1718 23.6851 23.6044 23.2525C24.0369 22.8199 24.28 22.2332 24.28 21.6214V14.6551H50.1613V21.6214C50.1613 22.2332 50.4043 22.8199 50.8369 23.2525C51.2695 23.6851 51.8562 23.9281 52.468 23.9281C53.0798 23.9281 53.6665 23.6851 54.0991 23.2525C54.5317 22.8199 54.7747 22.2332 54.7747 21.6214V14.6551H80.6561V21.6214C80.6561 22.2332 80.8991 22.8199 81.3317 23.2525C81.7643 23.6851 82.351 23.9281 82.9628 23.9281C83.5746 23.9281 84.1613 23.6851 84.5939 23.2525C85.0265 22.8199 85.2695 22.2332 85.2695 21.6214V14.6551H111.151V20.9755C111.151 21.5873 111.394 22.174 111.826 22.6066C112.259 23.0392 112.846 23.2822 113.458 23.2822C114.069 23.2822 114.656 23.0392 115.089 22.6066C115.521 22.174 115.764 21.5873 115.764 20.9755V14.6551H125.591C126.735 14.711 127.818 15.1907 128.628 16.0009C129.438 16.811 129.918 17.8936 129.974 19.0379V32.6014H5.45718V19.0379C5.5131 17.8936 5.9928 16.811 6.80292 16.0009C7.61304 15.1907 8.69562 14.711 9.83994 14.6551ZM125.637 102.31H9.83994C8.6568 102.251 7.54178 101.739 6.72587 100.88C5.90996 100.021 5.4557 98.8815 5.45718 97.6968V37.2148H130.02V97.9275C129.964 99.0718 129.484 100.154 128.674 100.965C127.864 101.775 126.781 102.254 125.637 102.31Z" fill="#2AA44C"/>
<path d="M49.8383 46.1187H40.0117V55.9453H49.8383V46.1187Z" fill="#2AA44C"/>
<path d="M72.8588 46.1187H63.0322V55.9453H72.8588V46.1187Z" fill="#2AA44C"/>
<path d="M95.9252 46.0264H86.0986V55.853H95.9252V46.0264Z" fill="#2AA44C"/>
<path d="M26.8178 64.8491H16.9912V74.6757H26.8178V64.8491Z" fill="#2AA44C"/>
<path d="M49.8383 64.8491H40.0117V74.6757H49.8383V64.8491Z" fill="#2AA44C"/>
<path d="M72.8588 64.8491H63.0322V74.6757H72.8588V64.8491Z" fill="#2AA44C"/>
<path d="M26.8178 83.8105H16.9912V93.6372H26.8178V83.8105Z" fill="#2AA44C"/>
<path d="M49.8383 83.8105H40.0117V93.6372H49.8383V83.8105Z" fill="#2AA44C"/>
<path d="M72.8588 83.7642H63.0322V93.5908H72.8588V83.7642Z" fill="#2AA44C"/>
<path d="M95.9252 83.7642H86.0986V93.5908H95.9252V83.7642Z" fill="#2AA44C"/>
<path d="M95.9252 64.8027H86.0986V74.6293H95.9252V64.8027Z" fill="#2AA44C"/>
<path d="M118.486 45.9805H108.659V55.8071H118.486V45.9805Z" fill="#2AA44C"/>
<path d="M118.486 64.7109H108.659V74.5375H118.486V64.7109Z" fill="#2AA44C"/>
</svg>
