<svg width="108" height="108" viewBox="0 0 108 108" fill="none" xmlns="http://www.w3.org/2000/svg">
<path d="M53.7379 0.583008C43.158 0.583008 32.8158 3.7203 24.0189 9.59817C15.2221 15.476 8.36578 23.8305 4.31704 33.605C0.268295 43.3795 -0.791041 54.1351 1.27299 64.5117C3.33702 74.8883 8.43171 84.4198 15.9128 91.9009C23.3939 99.382 32.9254 104.477 43.302 106.541C53.6786 108.605 64.4342 107.545 74.2087 103.497C83.9832 99.4479 92.3377 92.5916 98.2155 83.7948C104.093 74.9979 107.231 64.6557 107.231 54.0758C107.211 39.8946 101.569 26.2999 91.5415 16.2722C81.5138 6.24463 67.9191 0.602528 53.7379 0.583008V0.583008ZM53.7379 103.879C43.8877 103.879 34.2587 100.958 26.0685 95.486C17.8783 90.0135 11.4949 82.2352 7.72537 73.1348C3.95585 64.0344 2.96958 54.0205 4.89126 44.3596C6.81294 34.6986 11.5563 25.8245 18.5214 18.8593C25.4866 11.8941 34.3608 7.15081 44.0217 5.22913C53.6827 3.30744 63.6965 4.29372 72.7969 8.06324C81.8974 11.8328 89.6756 18.2162 95.1481 26.4064C100.621 34.5965 103.542 44.2256 103.542 54.0758C103.522 67.2785 98.2686 79.9349 88.9328 89.2707C79.5971 98.6065 66.9407 103.86 53.7379 103.879Z" fill="#2AA44C"/>
<path d="M55.5827 53.2277V20.3573C55.5827 19.8681 55.3884 19.3989 55.0424 19.053C54.6965 18.707 54.2273 18.5127 53.7381 18.5127C53.2489 18.5127 52.7797 18.707 52.4338 19.053C52.0879 19.3989 51.8936 19.8681 51.8936 20.3573V54.0762C51.8958 54.344 51.9564 54.6082 52.0711 54.8503C52.1857 55.0924 52.3518 55.3066 52.5576 55.478L71.0034 71.0094C71.1899 71.1644 71.4051 71.2812 71.6368 71.3531C71.8684 71.4249 72.112 71.4504 72.3535 71.4282C72.595 71.4059 72.8298 71.3363 73.0444 71.2233C73.259 71.1103 73.4492 70.9561 73.6042 70.7696C73.7593 70.5831 73.8761 70.3679 73.9479 70.1362C74.0198 69.9046 74.0453 69.661 74.023 69.4195C74.0007 69.178 73.9311 68.9432 73.8181 68.7286C73.7051 68.514 73.551 68.3238 73.3645 68.1687L55.5827 53.2277Z" fill="#2AA44C"/>
<rect x="52.4756" y="6.41504" width="2.52618" height="7.85817" rx="1.26309" fill="#2AA44C"/>
<rect x="101.123" y="52.5361" width="2.52618" height="7.85817" rx="1.26309" transform="rotate(90 101.123 52.5361)" fill="#2AA44C"/>
<rect x="52.4756" y="93.3252" width="2.52618" height="7.85817" rx="1.26309" fill="#2AA44C"/>
<rect x="14.2119" y="52.5361" width="2.52618" height="7.85817" rx="1.26309" transform="rotate(90 14.2119 52.5361)" fill="#2AA44C"/>
</svg>
