<svg width="59" height="44" viewBox="0 0 59 44" fill="none" xmlns="http://www.w3.org/2000/svg">
<path d="M21.1029 23.7419C20.6659 24.0237 20.4521 23.4478 20.889 23.166L29.0279 17.3855C31.2143 15.9751 32.0588 18.707 33.9292 17.4363L54.7016 3.3236C55.5755 2.7599 56.3369 3.35195 56.654 4.2058C56.9747 5.06968 56.8586 6.21541 55.9846 6.77912L34.7846 19.74C32.8782 20.9055 33.9821 23.4699 31.8079 24.8724L23.3482 29.789C22.9113 30.0709 22.6974 29.495 23.1344 29.2131L29.8378 23.6524C30.2748 23.3706 30.0609 22.7947 29.628 23.0872L22.237 26.7962C21.8 27.0781 21.5862 26.5022 22.0231 26.2203L28.7663 20.7666C29.2032 20.4847 28.995 19.9237 28.558 20.2056L21.1029 23.7419Z" fill="#2AA44C"/>
<path d="M52.3353 19.0493C52.2729 22.2613 51.6101 25.4349 50.3796 28.4057C49.0852 31.5306 47.188 34.3699 44.7964 36.7616C42.4047 39.1532 39.5654 41.0504 36.4405 42.3448C36.1778 42.4536 35.6517 42.5399 34.8856 42.5917C34.1409 42.6421 33.2327 42.6569 32.2501 42.6536C31.2787 42.6505 30.2438 42.6297 29.2332 42.6095L29.2017 42.6089C28.1834 42.5885 27.1896 42.5687 26.3216 42.5687C25.6518 42.5687 24.9316 42.5735 24.1941 42.5783C23.0184 42.586 21.7986 42.594 20.6686 42.5836C19.7522 42.5752 18.906 42.5547 18.2044 42.5126C17.5127 42.4712 16.9984 42.4105 16.6977 42.3323C13.5847 41.0382 10.7559 39.1456 8.37188 36.7616C5.98022 34.3699 4.08304 31.5306 2.78868 28.4057C1.55814 25.4349 0.895341 22.2613 0.832978 19.0493L26.5841 19.0493L52.3353 19.0493Z" fill="#2AA44C" stroke="#2AA44C"/>
<path d="M7.64598 20.2003L9.11817 21.4499L11.573 21.0035C11.692 20.7357 12.0014 20.1467 12.287 19.9324C12.5726 19.7182 13.7448 19.8432 14.2952 19.9324C14.5629 19.3524 15.1252 18.0494 15.2323 17.478C15.3394 16.9067 14.3249 16.0203 13.8043 15.6484C12.8077 15.827 10.7073 16.1305 10.2789 15.9163C9.85047 15.702 8.10699 16.0055 7.2888 16.1841C7.21442 16.7494 7.18173 17.9423 7.64598 18.1922C8.11023 18.4421 7.83942 19.6351 7.64598 20.2003Z" stroke="#2AA44C" stroke-linecap="round"/>
<path d="M20.3993 16.6616L18.5519 17.2236L17.5992 19.5297C17.76 19.7747 18.088 20.3535 18.1137 20.7097C18.1394 21.0658 17.4001 21.984 17.0272 22.3985C17.3702 22.9376 18.1618 24.1154 18.5844 24.5146C19.0069 24.9137 20.3013 24.5401 20.8957 24.3034C21.2847 23.3686 22.1658 21.438 22.5778 21.1936C22.9898 20.9493 23.6777 19.3187 23.9702 18.534C23.5351 18.1657 22.5495 17.4928 22.0881 17.748C21.6268 18.0033 20.77 17.1301 20.3993 16.6616Z" stroke="#2AA44C" stroke-linecap="round"/>
<path d="M19.9527 9.44825L19.033 8.4238L17.5084 9.44825C17.6691 9.69317 16.8736 10.6534 16.8993 11.0095C16.925 11.3656 17.8812 13.1841 17.5084 13.5987C17.8514 14.1377 18.643 15.3155 19.0655 15.7147C19.4881 16.1139 20.7418 14.4598 21.3361 14.2231C21.7252 13.2883 22.6469 12.6381 23.0589 12.3938C23.4709 12.1494 22.7664 11.4381 23.0589 10.6534C22.6237 10.285 23.0306 8.69293 22.5693 8.94817C22.1079 9.20341 20.3234 9.91675 19.9527 9.44825Z" stroke="#2AA44C" stroke-linecap="round"/>
<path d="M32.7352 11.5287L32.1235 10.8719L31.1673 11.4766C31.2757 11.6323 30.7858 12.2126 30.8099 12.4347C30.834 12.6568 31.4862 13.8083 31.2558 14.0582C31.4873 14.4008 32.0202 15.1503 32.2998 15.4076C32.5793 15.6649 33.3482 14.6628 33.7244 14.5282C33.954 13.9551 34.5314 13.5703 34.7905 13.4271C35.0495 13.2839 34.5825 12.8264 34.7533 12.3445C34.4664 12.1061 34.6934 11.1245 34.4029 11.2734C34.1125 11.4223 32.983 11.828 32.7352 11.5287Z" fill="#2AA44C"/>
<path d="M9.34443 8.74729L8.15072 8.44343L7.4962 9.8512C7.7369 9.95054 7.60239 10.9839 7.79506 11.2223C7.98772 11.4608 9.59531 12.3055 9.51504 12.765C10.0366 12.9885 11.2081 13.4578 11.7217 13.5472C12.2354 13.6366 12.3788 11.9092 12.7131 11.4746C12.5525 10.6427 12.9332 9.76995 13.1259 9.41234C13.3185 9.05472 12.4398 8.87352 12.2793 8.19053C11.7711 8.12844 11.3043 6.82698 11.0796 7.21452C10.855 7.60205 9.85263 8.90876 9.34443 8.74729Z" fill="#2AA44C"/>
<path d="M25.9001 15.7785L24.7064 15.4747L24.0519 16.8825C24.2926 16.9818 24.1581 18.0152 24.3507 18.2536C24.5434 18.492 26.151 19.3368 26.0707 19.7962C26.5922 20.0197 27.7637 20.4891 28.2774 20.5785C28.791 20.6679 28.9344 18.9405 29.2687 18.5059C29.1082 17.6739 29.4889 16.8012 29.6815 16.4436C29.8742 16.086 28.9955 15.9048 28.8349 15.2218C28.3268 15.1597 27.86 13.8582 27.6353 14.2458C27.4106 14.6333 26.4083 15.94 25.9001 15.7785Z" fill="#2AA44C"/>
<path d="M32.4211 21.1009L32.1173 22.2946L33.525 22.9491C33.6244 22.7084 34.6578 22.8429 34.8962 22.6503C35.1346 22.4576 35.9794 20.85 36.4388 20.9303C36.6623 20.4087 37.1317 19.2373 37.2211 18.7236C37.3105 18.2099 35.5831 18.0666 35.1485 17.7323C34.3165 17.8928 33.4438 17.5121 33.0862 17.3194C32.7286 17.1268 32.5473 18.0055 31.8644 18.166C31.8023 18.6742 30.5008 19.141 30.8883 19.3657C31.2759 19.5903 32.5826 20.5927 32.4211 21.1009Z" fill="#2AA44C"/>
<path d="M42.1496 19.4573L41.8458 20.651L43.2535 21.3056C43.3529 21.0649 44.3863 21.1994 44.6247 21.0067C44.8631 20.814 45.7079 19.2065 46.1673 19.2867C46.3908 18.7652 46.8602 17.5937 46.9496 17.0801C47.039 16.5664 45.3116 16.423 44.877 16.0887C44.045 16.2492 43.1723 15.8686 42.8147 15.6759C42.4571 15.4832 42.2759 16.3619 41.5929 16.5225C41.5308 17.0307 40.2293 17.4974 40.6169 17.7221C41.0044 17.9468 42.3111 18.9491 42.1496 19.4573Z" fill="#2AA44C" stroke="#2AA44C" stroke-linecap="round"/>
<path d="M23.7666 6.07114L25.1497 4.68786H27.0243L28.5416 3.9292L29.925 4.68786V6.07114C29.9696 6.54717 30.1035 7.50816 30.282 7.54386C30.4605 7.57956 31.1299 8.39174 31.4422 8.79337L29.4341 10.3553H26.5781L24.6145 9.41813L24.3022 7.99012V7.23148L23.7666 6.07114Z" stroke="#2AA44C" stroke-linecap="round"/>
<path d="M41.3215 9.60456L37.2246 11.5624V12.382C37.8012 12.2454 39.0364 11.9358 39.3642 11.7901C39.7739 11.6081 42.0496 10.4702 42.3234 10.3333L42.3236 10.3332C42.5967 10.1966 44.7821 8.55757 45.0553 8.19333C45.3285 7.8291 46.1025 6.96404 46.5578 6.41769C46.922 5.98061 46.406 5.56779 46.1025 5.41602H45.374L44.0082 7.3282L41.3215 9.60456Z" fill="#2AA44C"/>
<path d="M4.20025 15.7005L1.86726 16.8885L1.8713 17.3777C2.20033 17.2934 2.90507 17.1028 3.0918 17.0143C3.32518 16.9037 4.62097 16.2136 4.77676 16.1307L4.77682 16.1306C4.93234 16.0478 6.17388 15.0592 6.32829 14.8405C6.4827 14.6218 6.921 14.1017 7.17865 13.7735C7.38476 13.5109 7.08767 13.2669 6.91336 13.1777L6.49682 13.1812L5.72524 14.329L4.20025 15.7005Z" fill="#2AA44C"/>
<path d="M47.9991 18.4993L45.6661 19.6873L45.6701 20.1765C45.9992 20.0923 46.7039 19.9016 46.8906 19.8131C47.124 19.7025 48.4198 19.0125 48.5756 18.9295L48.5756 18.9295C48.7312 18.8467 49.9727 17.858 50.1271 17.6393C50.2815 17.4206 50.7198 16.9006 50.9775 16.5723C51.1836 16.3097 50.8865 16.0657 50.7122 15.9766L50.2956 15.98L49.5241 17.1278L47.9991 18.4993Z" fill="#2AA44C"/>
</svg>
