<svg width="136" height="108" viewBox="0 0 136 108" fill="none" xmlns="http://www.w3.org/2000/svg">
<path d="M67.9451 93.3804C68.9461 93.3804 69.7585 92.5699 69.7585 91.5671V31.7279C69.7585 30.7251 68.9461 29.9146 67.9451 29.9146C66.9442 29.9146 66.1318 30.7251 66.1318 31.7279V91.5671C66.1318 92.5699 66.9442 93.3804 67.9451 93.3804Z" fill="#2AA44C"/>
<path d="M49.8123 93.3804C50.8133 93.3804 51.6256 92.5699 51.6256 91.5671V31.7279C51.6256 30.7251 50.8133 29.9146 49.8123 29.9146C48.8114 29.9146 47.999 30.7251 47.999 31.7279V91.5671C47.999 92.5699 48.8114 93.3804 49.8123 93.3804Z" fill="#2AA44C"/>
<path d="M86.078 93.3804C87.0789 93.3804 87.8913 92.5699 87.8913 91.5671V31.7279C87.8913 30.7251 87.0789 29.9146 86.078 29.9146C85.077 29.9146 84.2646 30.7251 84.2646 31.7279V91.5671C84.2646 92.5699 85.077 93.3804 86.078 93.3804Z" fill="#2AA44C"/>
<path d="M109.651 11.7812H84.1853C83.9858 9.51459 83.2877 5.69214 80.8977 3.23873C79.3854 1.68834 77.4669 0.901367 75.1967 0.901367H57.0654C54.7951 0.901367 52.8766 1.68834 51.3643 3.23873C48.9744 5.69214 48.2763 9.51459 48.0768 11.7812H26.2391C25.2381 11.7812 24.4258 12.5918 24.4258 13.5945C24.4258 14.5973 25.2381 15.4079 26.2391 15.4079H29.9401L33.4126 98.8582C33.4796 101.981 35.4235 107.887 42.3123 107.887H93.5782C100.467 107.887 102.411 101.981 102.476 98.8963L105.95 15.4079H109.651C110.652 15.4079 111.465 14.5973 111.465 13.5945C111.465 12.5918 110.652 11.7812 109.651 11.7812ZM53.9682 5.76285C54.7806 4.93236 55.7943 4.52799 57.0654 4.52799H75.1967C76.4678 4.52799 77.4815 4.93236 78.2938 5.76285C79.7535 7.25521 80.3392 9.88088 80.5423 11.7812H51.7216C51.9246 9.88088 52.5103 7.25521 53.9682 5.76285ZM98.8513 98.7821C98.8404 99.3424 98.5902 104.26 93.5782 104.26H42.3123C37.3547 104.26 37.0573 99.3333 37.0374 98.744L33.5685 15.4079H102.32L98.8513 98.7821Z" fill="#2AA44C"/>
<rect x="134.129" y="13.665" width="3.5093" height="154.869" rx="1.75465" transform="rotate(60 134.129 13.665)" fill="#2AA44C"/>
<rect x="134.129" y="13.665" width="3.5093" height="154.869" rx="1.75465" transform="rotate(60 134.129 13.665)" stroke="#2AA44C"/>
</svg>
